<svg id="Camada_1" data-name="Camada 1" xmlns="http://www.w3.org/2000/svg" viewBox="0 0 434.37 482"><defs><style>.cls-1{fill:#545454;}.cls-2{fill:#9c00ff;}.cls-3{fill:#fc0;}.cls-4{fill:#363636;}.cls-5{fill:#333;}</style></defs><title>logo</title><path class="cls-1" d="M89.25,389h-65L9.71,420.78H4L54.21,312.25h5.11l50.24,108.53h-5.74Zm-2-4.5L56.84,318.29,26.3,384.5Z" transform="translate(-3.97 -9)"/><path class="cls-1" d="M138.63,409.62Q127.38,397.83,127.39,375V312.25h5.27v62.64q0,20.78,9.61,31.24T170,416.59q18,0,27.67-10.46t9.69-31.24V312.25h5.12V375q0,22.8-11.17,34.58T170,421.4Q149.87,421.4,138.63,409.62Z" transform="translate(-3.97 -9)"/><path class="cls-1" d="M251.27,312.25h5.27V416h63.57v4.81H251.27Z" transform="translate(-3.97 -9)"/><path class="cls-1" d="M418,389h-65l-14.58,31.78h-5.73L383,312.25h5.12l50.23,108.53h-5.73Zm-2-4.5-30.39-66.21L355.08,384.5Z" transform="translate(-3.97 -9)"/><path class="cls-2" d="M148.48,480.67H126.09L121.82,491H110.38l21.49-48.23h11L164.46,491H152.75ZM145,472.19l-7.64-18.46-7.65,18.46Z" transform="translate(-3.97 -9)"/><path class="cls-2" d="M177.07,451.87H161.64v-9.1h42v9.1H188.23V491H177.07Z" transform="translate(-3.97 -9)"/><path class="cls-2" d="M209.66,442.77h11.16V491H209.66Z" transform="translate(-3.97 -9)"/><path class="cls-2" d="M278.35,442.77,257.48,491h-11l-20.81-48.23H237.7l14.68,34.45,14.88-34.45Z" transform="translate(-3.97 -9)"/><path class="cls-2" d="M312.52,480.67H290.13L285.86,491H274.42l21.5-48.23h11L328.51,491H316.8ZM309,472.19l-7.65-18.46-7.65,18.46Z" transform="translate(-3.97 -9)"/><polyline class="cls-3" points="345.88 451.8 351.3 438.86 356.73 451.8"/><polyline class="cls-3" points="356.73 451.8 351.3 464.73 345.88 451.8"/><polyline class="cls-3" points="349.22 457.64 336.28 452.21 349.22 446.79"/><polyline class="cls-3" points="351.72 447 364.65 452.42 351.72 457.85"/><polyline class="cls-3" points="74.71 452.45 80.14 439.52 85.56 452.45"/><polyline class="cls-3" points="85.56 452.45 80.14 465.39 74.71 452.45"/><polyline class="cls-3" points="78.05 458.3 65.12 452.87 78.05 447.45"/><polyline class="cls-3" points="80.55 447.66 93.49 453.08 80.55 458.5"/><path class="cls-2" d="M249.44,37.09V66.54h-4.57V37.2a23.63,23.63,0,1,0-47.26,0V66.54H193V37.09a28.2,28.2,0,0,1,56.4,0Z" transform="translate(-3.97 -9)"/><rect class="cls-2" x="218.96" y="33.55" width="4.57" height="39.96" transform="translate(270.79 -176.71) rotate(90)"/><path class="cls-4" d="M247.26,100.39V204.31l-7.19-.56v0l-18.8-18.27-20.47,18.81,13.69,24.43c3.71-.05,8.76-.1,12.23-.08l13.35-24.89.56.54h6.64L220.71,254l-26-49.66V78.16h41.38v4.42h-37v117.3L221,179.41l21.85,20.47V100.39Z" transform="translate(-3.97 -9)"/><polygon class="cls-4" points="243.29 195.31 236.65 195.31 236.09 194.77 236.1 194.75 243.29 195.31"/><polygon class="cls-4" points="243.29 195.31 236.65 195.31 236.09 194.77 236.1 194.75 243.29 195.31"/><path class="cls-2" d="M235.08,35.35v8.37H206.91V35.35a1.62,1.62,0,0,1,0-.22c.12-7,6.38-12.66,14.07-12.66s13.95,5.64,14.08,12.66A1.62,1.62,0,0,1,235.08,35.35Z" transform="translate(-3.97 -9)"/><path class="cls-5" d="M202.33,35.86h0v0Z" transform="translate(-3.97 -9)"/><path class="cls-5" d="M239.66,35.86v.32c0-.11,0-.21,0-.32Z" transform="translate(-3.97 -9)"/><path class="cls-2" d="M178.75,136.19l-23.24-11.81a1.14,1.14,0,0,0-1.65,1v34.91a1.13,1.13,0,0,0,.72,1.06l24.17,9.42" transform="translate(-3.97 -9)"/><polygon class="cls-3" points="232.41 172.27 218.66 157.2 201.63 172.27 201.63 81.22 232.41 81.22 232.41 172.27"/><path class="cls-2" d="M180.87,189.34h-.15l-58.78-5.24a1.63,1.63,0,0,1-1.49-1.63v-73a1.64,1.64,0,1,1,3.27,0V181l41.53,3.7-28.77-8.74a1.65,1.65,0,0,1-1.17-1.57V95.81a1.64,1.64,0,0,1,2.4-1.45l43.92,23a1.64,1.64,0,0,1-1.52,2.9L138.59,98.51v74.63l42.76,13a1.64,1.64,0,0,1-.48,3.21Z" transform="translate(-3.97 -9)"/><path class="cls-2" d="M267.66,140.78,290.89,129a1.14,1.14,0,0,1,1.66,1v34.91a1.14,1.14,0,0,1-.73,1.06l-24.16,9.42" transform="translate(-3.97 -9)"/><path class="cls-2" d="M265.53,193.92h.15l58.78-5.23a1.64,1.64,0,0,0,1.5-1.63v-73a1.64,1.64,0,1,0-3.28,0v71.47l-41.52,3.7,28.77-8.74a1.64,1.64,0,0,0,1.16-1.57V100.39a1.64,1.64,0,0,0-.79-1.4,1.67,1.67,0,0,0-1.61,0l-43.91,23a1.64,1.64,0,0,0,1.51,2.91l41.53-21.72v74.63l-42.76,13a1.64,1.64,0,0,0,.47,3.2Z" transform="translate(-3.97 -9)"/><polygon class="cls-3" points="189.18 241.37 148.89 241.37 87.3 204.42 89.28 82 78.16 58.45 78.16 19.56 167.18 43.02 165.34 49.99 85.36 28.91 85.36 56.83 96.51 80.44 96.5 81.28 94.57 200.38 150.88 234.17 189.18 234.17 189.18 241.37"/><polygon class="cls-3" points="245.19 243.34 285.49 243.34 347.07 206.38 345.09 83.97 356.21 60.41 356.21 21.52 267.19 44.99 269.03 51.95 349.01 30.88 349.01 58.8 337.86 82.41 337.87 83.25 339.8 202.34 283.49 236.13 245.19 236.13 245.19 243.34"/></svg>